# xmcd CD database file
#
# Track frame offsets:
#	150
#	19775
#	40440
#	62367
#	91697
#	110837
#	132072
#	151810
#	178075
#	203502
#
# Disc length: 2910 seconds
#
# Revision: 0
# Processed by: cddbd v1.5.2PL0 Copyright (c) Steve Scherf et al.
# Submitted via: CDex 1.51
#
DISCID=770b5c0a
DTITLE=Paul Barnes and Bovisa Jazz Band - Paul Barnes in Italy
DYEAR=2001
DGENRE=Jazz
TTITLE0=Hindustan
TTITLE1=The Curse Of An Aching Heart
TTITLE2=Muskrat Ramble
TTITLE3=Basin St. Blues
TTITLE4=Dixiland One Step
TTITLE5=Savoy Blues
TTITLE6=Indiana
TTITLE7=Just A Closer Walk With Thee
TTITLE8=Panama
TTITLE9=Tipi Tipi Tin
EXTD=YEAR: 2001
EXTT0=
EXTT1=
EXTT2=
EXTT3=
EXTT4=
EXTT5=
EXTT6=
EXTT7=
EXTT8=
EXTT9=
PLAYORDER=
